<mxfile host="65bd71144e" modified="2021-02-25T01:38:43.410Z" agent="5.0 (Windows NT 10.0; Win64; x64) AppleWebKit/537.36 (KHTML, like Gecko) Code/1.53.0 Chrome/87.0.4280.141 Electron/11.2.1 Safari/537.36" etag="dQJS-Wv0YRPyp3IS7AqO" version="14.2.4" type="embed">
    <diagram id="ZBdBscnt3khW67y08yLE" name="第 1 页">
        <mxGraphModel dx="894" dy="575" grid="1" gridSize="10" guides="1" tooltips="1" connect="1" arrows="1" fold="1" page="1" pageScale="1" pageWidth="827" pageHeight="1169" math="0" shadow="0">
            <root>
                <mxCell id="0"/>
                <mxCell id="1" parent="0"/>
                <mxCell id="5" style="edgeStyle=orthogonalEdgeStyle;rounded=0;orthogonalLoop=1;jettySize=auto;html=1;exitX=0.5;exitY=0;exitDx=0;exitDy=0;" parent="1" source="4" edge="1">
                    <mxGeometry relative="1" as="geometry">
                        <mxPoint x="130" y="190" as="targetPoint"/>
                        <Array as="points">
                            <mxPoint x="40" y="190"/>
                        </Array>
                        <mxPoint x="40" y="315" as="sourcePoint"/>
                    </mxGeometry>
                </mxCell>
                <mxCell id="8" style="edgeStyle=orthogonalEdgeStyle;rounded=0;orthogonalLoop=1;jettySize=auto;html=1;exitX=1;exitY=0.5;exitDx=0;exitDy=0;" parent="1" source="4" edge="1">
                    <mxGeometry relative="1" as="geometry">
                        <mxPoint x="130" y="495" as="targetPoint"/>
                        <mxPoint x="60" y="325" as="sourcePoint"/>
                        <Array as="points"/>
                    </mxGeometry>
                </mxCell>
                <mxCell id="53" style="edgeStyle=orthogonalEdgeStyle;rounded=0;orthogonalLoop=1;jettySize=auto;html=1;" edge="1" parent="1" source="4">
                    <mxGeometry relative="1" as="geometry">
                        <mxPoint x="130" y="840" as="targetPoint"/>
                        <Array as="points">
                            <mxPoint x="40" y="840"/>
                        </Array>
                    </mxGeometry>
                </mxCell>
                <mxCell id="4" value="" style="ellipse;whiteSpace=wrap;html=1;sketch=0;" parent="1" vertex="1">
                    <mxGeometry x="20" y="485" width="40" height="20" as="geometry"/>
                </mxCell>
                <mxCell id="6" value="12月" style="text;html=1;align=center;verticalAlign=middle;resizable=0;points=[];autosize=1;" parent="1" vertex="1">
                    <mxGeometry x="60" y="170" width="40" height="20" as="geometry"/>
                </mxCell>
                <mxCell id="145" style="edgeStyle=orthogonalEdgeStyle;rounded=0;orthogonalLoop=1;jettySize=auto;html=1;" edge="1" parent="1" source="7">
                    <mxGeometry relative="1" as="geometry">
                        <mxPoint x="130" y="150" as="targetPoint"/>
                        <Array as="points">
                            <mxPoint x="110" y="190"/>
                        </Array>
                    </mxGeometry>
                </mxCell>
                <mxCell id="7" value="45个电子病历模板页面&lt;br&gt;" style="text;html=1;align=center;verticalAlign=middle;resizable=0;points=[];autosize=1;" parent="1" vertex="1">
                    <mxGeometry x="130" y="180" width="140" height="20" as="geometry"/>
                </mxCell>
                <mxCell id="9" value="react及生态学习" style="text;html=1;align=center;verticalAlign=middle;resizable=0;points=[];autosize=1;" parent="1" vertex="1">
                    <mxGeometry x="130" y="485" width="100" height="20" as="geometry"/>
                </mxCell>
                <mxCell id="10" value="antd-Design UI组件库熟悉" style="whiteSpace=wrap;html=1;rounded=1;arcSize=50;align=center;verticalAlign=middle;strokeWidth=1;autosize=1;spacing=4;treeFolding=1;treeMoving=1;newEdgeStyle={&quot;edgeStyle&quot;:&quot;entityRelationEdgeStyle&quot;,&quot;startArrow&quot;:&quot;none&quot;,&quot;endArrow&quot;:&quot;none&quot;,&quot;segment&quot;:10,&quot;curved&quot;:1};sketch=0;" parent="1" vertex="1">
                    <mxGeometry x="310" y="400" width="180" height="30" as="geometry"/>
                </mxCell>
                <mxCell id="11" value="" style="edgeStyle=entityRelationEdgeStyle;startArrow=none;endArrow=none;segment=10;curved=1;exitX=0.994;exitY=0.28;exitDx=0;exitDy=0;exitPerimeter=0;" parent="1" source="9" target="10" edge="1">
                    <mxGeometry relative="1" as="geometry">
                        <mxPoint x="260" y="410" as="sourcePoint"/>
                    </mxGeometry>
                </mxCell>
                <mxCell id="12" value="react组件组件通信" style="whiteSpace=wrap;html=1;rounded=1;arcSize=50;align=center;verticalAlign=middle;strokeWidth=1;autosize=1;spacing=4;treeFolding=1;treeMoving=1;newEdgeStyle={&quot;edgeStyle&quot;:&quot;entityRelationEdgeStyle&quot;,&quot;startArrow&quot;:&quot;none&quot;,&quot;endArrow&quot;:&quot;none&quot;,&quot;segment&quot;:10,&quot;curved&quot;:1};sketch=0;" parent="1" vertex="1">
                    <mxGeometry x="310" y="440" width="140" height="30" as="geometry"/>
                </mxCell>
                <mxCell id="13" value="" style="edgeStyle=entityRelationEdgeStyle;startArrow=none;endArrow=none;segment=10;curved=1;" parent="1" target="12" edge="1">
                    <mxGeometry relative="1" as="geometry">
                        <mxPoint x="230" y="491" as="sourcePoint"/>
                    </mxGeometry>
                </mxCell>
                <mxCell id="14" value="react 路由配置 跳转" style="whiteSpace=wrap;html=1;rounded=1;arcSize=50;align=center;verticalAlign=middle;strokeWidth=1;autosize=1;spacing=4;treeFolding=1;treeMoving=1;newEdgeStyle={&quot;edgeStyle&quot;:&quot;entityRelationEdgeStyle&quot;,&quot;startArrow&quot;:&quot;none&quot;,&quot;endArrow&quot;:&quot;none&quot;,&quot;segment&quot;:10,&quot;curved&quot;:1};sketch=0;" parent="1" vertex="1">
                    <mxGeometry x="310" y="525" width="150" height="30" as="geometry"/>
                </mxCell>
                <mxCell id="15" value="" style="edgeStyle=entityRelationEdgeStyle;startArrow=none;endArrow=none;segment=10;curved=1;exitX=0.994;exitY=0.36;exitDx=0;exitDy=0;exitPerimeter=0;" parent="1" source="9" target="14" edge="1">
                    <mxGeometry relative="1" as="geometry">
                        <mxPoint x="240" y="501" as="sourcePoint"/>
                    </mxGeometry>
                </mxCell>
                <mxCell id="16" value="react 相关函数库学习" style="whiteSpace=wrap;html=1;rounded=1;arcSize=50;align=center;verticalAlign=middle;strokeWidth=1;autosize=1;spacing=4;treeFolding=1;treeMoving=1;newEdgeStyle={&quot;edgeStyle&quot;:&quot;entityRelationEdgeStyle&quot;,&quot;startArrow&quot;:&quot;none&quot;,&quot;endArrow&quot;:&quot;none&quot;,&quot;segment&quot;:10,&quot;curved&quot;:1};sketch=0;" parent="1" vertex="1">
                    <mxGeometry x="310" y="650" width="150" height="30" as="geometry"/>
                </mxCell>
                <mxCell id="17" value="" style="edgeStyle=entityRelationEdgeStyle;startArrow=none;endArrow=none;segment=10;curved=1;" parent="1" target="16" edge="1">
                    <mxGeometry relative="1" as="geometry">
                        <mxPoint x="230" y="500" as="sourcePoint"/>
                    </mxGeometry>
                </mxCell>
                <mxCell id="18" value="axios 请求封装" style="whiteSpace=wrap;html=1;rounded=1;arcSize=50;align=center;verticalAlign=middle;strokeWidth=1;autosize=1;spacing=4;treeFolding=1;treeMoving=1;newEdgeStyle={&quot;edgeStyle&quot;:&quot;entityRelationEdgeStyle&quot;,&quot;startArrow&quot;:&quot;none&quot;,&quot;endArrow&quot;:&quot;none&quot;,&quot;segment&quot;:10,&quot;curved&quot;:1};sketch=0;" parent="1" vertex="1">
                    <mxGeometry x="310" y="570" width="120" height="30" as="geometry"/>
                </mxCell>
                <mxCell id="19" value="" style="edgeStyle=entityRelationEdgeStyle;startArrow=none;endArrow=none;segment=10;curved=1;exitX=0.994;exitY=0.56;exitDx=0;exitDy=0;exitPerimeter=0;" parent="1" source="9" target="18" edge="1">
                    <mxGeometry relative="1" as="geometry">
                        <mxPoint x="260" y="521" as="sourcePoint"/>
                    </mxGeometry>
                </mxCell>
                <mxCell id="20" value="react类组件函数组件的区别写法方式" style="whiteSpace=wrap;html=1;rounded=1;arcSize=50;align=center;verticalAlign=middle;strokeWidth=1;autosize=1;spacing=4;treeFolding=1;treeMoving=1;newEdgeStyle={&quot;edgeStyle&quot;:&quot;entityRelationEdgeStyle&quot;,&quot;startArrow&quot;:&quot;none&quot;,&quot;endArrow&quot;:&quot;none&quot;,&quot;segment&quot;:10,&quot;curved&quot;:1};sketch=0;" parent="1" vertex="1">
                    <mxGeometry x="310" y="610" width="230" height="30" as="geometry"/>
                </mxCell>
                <mxCell id="21" value="" style="edgeStyle=entityRelationEdgeStyle;startArrow=none;endArrow=none;segment=10;curved=1;exitX=0.994;exitY=0.6;exitDx=0;exitDy=0;exitPerimeter=0;" parent="1" source="9" target="20" edge="1">
                    <mxGeometry relative="1" as="geometry">
                        <mxPoint x="244" y="671.3" as="sourcePoint"/>
                    </mxGeometry>
                </mxCell>
                <mxCell id="22" value="ahooks" style="whiteSpace=wrap;html=1;shape=partialRectangle;top=0;left=0;bottom=1;right=0;points=[[0,1],[1,1]];fillColor=none;align=center;verticalAlign=bottom;routingCenterY=0.5;snapToPoint=1;recursiveResize=0;autosize=1;treeFolding=1;treeMoving=1;newEdgeStyle={&quot;edgeStyle&quot;:&quot;entityRelationEdgeStyle&quot;,&quot;startArrow&quot;:&quot;none&quot;,&quot;endArrow&quot;:&quot;none&quot;,&quot;segment&quot;:10,&quot;curved&quot;:1};" vertex="1" parent="1">
                    <mxGeometry x="540" y="690" width="70" height="20" as="geometry"/>
                </mxCell>
                <mxCell id="23" value="" style="edgeStyle=entityRelationEdgeStyle;startArrow=none;endArrow=none;segment=10;curved=1;exitX=1;exitY=0.5;exitDx=0;exitDy=0;" edge="1" target="22" parent="1" source="16">
                    <mxGeometry relative="1" as="geometry">
                        <mxPoint x="520" y="670" as="sourcePoint"/>
                    </mxGeometry>
                </mxCell>
                <mxCell id="25" value="antv 数据可视化学习" style="whiteSpace=wrap;html=1;rounded=1;arcSize=50;align=center;verticalAlign=middle;strokeWidth=1;autosize=1;spacing=4;treeFolding=1;treeMoving=1;newEdgeStyle={&quot;edgeStyle&quot;:&quot;entityRelationEdgeStyle&quot;,&quot;startArrow&quot;:&quot;none&quot;,&quot;endArrow&quot;:&quot;none&quot;,&quot;segment&quot;:10,&quot;curved&quot;:1};sketch=0;" vertex="1" parent="1">
                    <mxGeometry x="310" y="690" width="150" height="30" as="geometry"/>
                </mxCell>
                <mxCell id="26" value="" style="edgeStyle=entityRelationEdgeStyle;startArrow=none;endArrow=none;segment=10;curved=1;" edge="1" parent="1" target="25">
                    <mxGeometry relative="1" as="geometry">
                        <mxPoint x="229" y="491" as="sourcePoint"/>
                    </mxGeometry>
                </mxCell>
                <mxCell id="30" value="underscore" style="whiteSpace=wrap;html=1;shape=partialRectangle;top=0;left=0;bottom=1;right=0;points=[[0,1],[1,1]];fillColor=none;align=center;verticalAlign=bottom;routingCenterY=0.5;snapToPoint=1;recursiveResize=0;autosize=1;treeFolding=1;treeMoving=1;newEdgeStyle={&quot;edgeStyle&quot;:&quot;entityRelationEdgeStyle&quot;,&quot;startArrow&quot;:&quot;none&quot;,&quot;endArrow&quot;:&quot;none&quot;,&quot;segment&quot;:10,&quot;curved&quot;:1};" vertex="1" parent="1">
                    <mxGeometry x="540" y="720" width="95" height="20" as="geometry"/>
                </mxCell>
                <mxCell id="31" value="" style="edgeStyle=entityRelationEdgeStyle;startArrow=none;endArrow=none;segment=10;curved=1;" edge="1" parent="1" target="30" source="16">
                    <mxGeometry relative="1" as="geometry">
                        <mxPoint x="460" y="640" as="sourcePoint"/>
                    </mxGeometry>
                </mxCell>
                <mxCell id="32" value="react 状态管理" style="whiteSpace=wrap;html=1;rounded=1;arcSize=50;align=center;verticalAlign=middle;strokeWidth=1;autosize=1;spacing=4;treeFolding=1;treeMoving=1;newEdgeStyle={&quot;edgeStyle&quot;:&quot;entityRelationEdgeStyle&quot;,&quot;startArrow&quot;:&quot;none&quot;,&quot;endArrow&quot;:&quot;none&quot;,&quot;segment&quot;:10,&quot;curved&quot;:1};sketch=0;" vertex="1" parent="1">
                    <mxGeometry x="310" y="480" width="120" height="30" as="geometry"/>
                </mxCell>
                <mxCell id="33" value="" style="edgeStyle=entityRelationEdgeStyle;startArrow=none;endArrow=none;segment=10;curved=1;" edge="1" parent="1" target="32" source="9">
                    <mxGeometry relative="1" as="geometry">
                        <mxPoint x="230" y="540" as="sourcePoint"/>
                    </mxGeometry>
                </mxCell>
                <mxCell id="34" value="redux 全局状态管理" style="whiteSpace=wrap;html=1;shape=partialRectangle;top=0;left=0;bottom=1;right=0;points=[[0,1],[1,1]];fillColor=none;align=center;verticalAlign=bottom;routingCenterY=0.5;snapToPoint=1;recursiveResize=0;autosize=1;treeFolding=1;treeMoving=1;newEdgeStyle={&quot;edgeStyle&quot;:&quot;entityRelationEdgeStyle&quot;,&quot;startArrow&quot;:&quot;none&quot;,&quot;endArrow&quot;:&quot;none&quot;,&quot;segment&quot;:10,&quot;curved&quot;:1};" vertex="1" parent="1">
                    <mxGeometry x="470" y="470" width="140" height="20" as="geometry"/>
                </mxCell>
                <mxCell id="35" value="" style="edgeStyle=entityRelationEdgeStyle;startArrow=none;endArrow=none;segment=10;curved=1;exitX=1;exitY=0.5;exitDx=0;exitDy=0;" edge="1" target="34" parent="1" source="32">
                    <mxGeometry relative="1" as="geometry">
                        <mxPoint x="460" y="510" as="sourcePoint"/>
                    </mxGeometry>
                </mxCell>
                <mxCell id="36" value="redux 全局状态管理" style="whiteSpace=wrap;html=1;shape=partialRectangle;top=0;left=0;bottom=1;right=0;points=[[0,1],[1,1]];fillColor=none;align=center;verticalAlign=bottom;routingCenterY=0.5;snapToPoint=1;recursiveResize=0;autosize=1;treeFolding=1;treeMoving=1;newEdgeStyle={&quot;edgeStyle&quot;:&quot;entityRelationEdgeStyle&quot;,&quot;startArrow&quot;:&quot;none&quot;,&quot;endArrow&quot;:&quot;none&quot;,&quot;segment&quot;:10,&quot;curved&quot;:1};" vertex="1" parent="1">
                    <mxGeometry x="470" y="470" width="140" height="20" as="geometry"/>
                </mxCell>
                <mxCell id="37" value="" style="edgeStyle=entityRelationEdgeStyle;startArrow=none;endArrow=none;segment=10;curved=1;exitX=1;exitY=0.5;exitDx=0;exitDy=0;" edge="1" parent="1" source="32">
                    <mxGeometry relative="1" as="geometry">
                        <mxPoint x="430" y="545" as="sourcePoint"/>
                        <mxPoint x="470" y="525" as="targetPoint"/>
                    </mxGeometry>
                </mxCell>
                <mxCell id="38" value="react-hooks组件状态管理" style="whiteSpace=wrap;html=1;shape=partialRectangle;top=0;left=0;bottom=1;right=0;points=[[0,1],[1,1]];fillColor=none;align=center;verticalAlign=bottom;routingCenterY=0.5;snapToPoint=1;recursiveResize=0;autosize=1;treeFolding=1;treeMoving=1;newEdgeStyle={&quot;edgeStyle&quot;:&quot;entityRelationEdgeStyle&quot;,&quot;startArrow&quot;:&quot;none&quot;,&quot;endArrow&quot;:&quot;none&quot;,&quot;segment&quot;:10,&quot;curved&quot;:1};" vertex="1" parent="1">
                    <mxGeometry x="470" y="505" width="170" height="20" as="geometry"/>
                </mxCell>
                <mxCell id="39" value="scss less 学习css写法" style="whiteSpace=wrap;html=1;rounded=1;arcSize=50;align=center;verticalAlign=middle;strokeWidth=1;autosize=1;spacing=4;treeFolding=1;treeMoving=1;newEdgeStyle={&quot;edgeStyle&quot;:&quot;entityRelationEdgeStyle&quot;,&quot;startArrow&quot;:&quot;none&quot;,&quot;endArrow&quot;:&quot;none&quot;,&quot;segment&quot;:10,&quot;curved&quot;:1};sketch=0;" vertex="1" parent="1">
                    <mxGeometry x="310" y="730" width="160" height="30" as="geometry"/>
                </mxCell>
                <mxCell id="40" value="" style="edgeStyle=entityRelationEdgeStyle;startArrow=none;endArrow=none;segment=10;curved=1;" edge="1" parent="1" target="39" source="9">
                    <mxGeometry relative="1" as="geometry">
                        <mxPoint x="229" y="535" as="sourcePoint"/>
                    </mxGeometry>
                </mxCell>
                <mxCell id="42" value="classnames 辅助class类名判断" style="whiteSpace=wrap;html=1;shape=partialRectangle;top=0;left=0;bottom=1;right=0;points=[[0,1],[1,1]];fillColor=none;align=center;verticalAlign=bottom;routingCenterY=0.5;snapToPoint=1;recursiveResize=0;autosize=1;treeFolding=1;treeMoving=1;newEdgeStyle={&quot;edgeStyle&quot;:&quot;entityRelationEdgeStyle&quot;,&quot;startArrow&quot;:&quot;none&quot;,&quot;endArrow&quot;:&quot;none&quot;,&quot;segment&quot;:10,&quot;curved&quot;:1};" vertex="1" parent="1">
                    <mxGeometry x="560" y="640" width="200" height="20" as="geometry"/>
                </mxCell>
                <mxCell id="43" value="" style="edgeStyle=entityRelationEdgeStyle;startArrow=none;endArrow=none;segment=10;curved=1;exitX=1;exitY=0.5;exitDx=0;exitDy=0;" edge="1" parent="1" source="16">
                    <mxGeometry relative="1" as="geometry">
                        <mxPoint x="460" y="640" as="sourcePoint"/>
                        <mxPoint x="540" y="680" as="targetPoint"/>
                    </mxGeometry>
                </mxCell>
                <mxCell id="44" value="lodash" style="whiteSpace=wrap;html=1;shape=partialRectangle;top=0;left=0;bottom=1;right=0;points=[[0,1],[1,1]];fillColor=none;align=center;verticalAlign=bottom;routingCenterY=0.5;snapToPoint=1;recursiveResize=0;autosize=1;treeFolding=1;treeMoving=1;newEdgeStyle={&quot;edgeStyle&quot;:&quot;entityRelationEdgeStyle&quot;,&quot;startArrow&quot;:&quot;none&quot;,&quot;endArrow&quot;:&quot;none&quot;,&quot;segment&quot;:10,&quot;curved&quot;:1};" vertex="1" parent="1">
                    <mxGeometry x="540.5" y="747.5" width="70" height="20" as="geometry"/>
                </mxCell>
                <mxCell id="45" value="" style="edgeStyle=entityRelationEdgeStyle;startArrow=none;endArrow=none;segment=10;curved=1;exitX=1;exitY=0.5;exitDx=0;exitDy=0;" edge="1" parent="1" target="44" source="16">
                    <mxGeometry relative="1" as="geometry">
                        <mxPoint x="465.5" y="692.5" as="sourcePoint"/>
                    </mxGeometry>
                </mxCell>
                <mxCell id="46" value="" style="edgeStyle=entityRelationEdgeStyle;startArrow=none;endArrow=none;segment=10;curved=1;exitX=1;exitY=0.5;exitDx=0;exitDy=0;" edge="1" parent="1" source="18">
                    <mxGeometry relative="1" as="geometry">
                        <mxPoint x="435" y="555" as="sourcePoint"/>
                        <mxPoint x="475" y="585" as="targetPoint"/>
                    </mxGeometry>
                </mxCell>
                <mxCell id="47" value="请求发送前进行拦截 响应时拦截" style="whiteSpace=wrap;html=1;shape=partialRectangle;top=0;left=0;bottom=1;right=0;points=[[0,1],[1,1]];fillColor=none;align=center;verticalAlign=bottom;routingCenterY=0.5;snapToPoint=1;recursiveResize=0;autosize=1;treeFolding=1;treeMoving=1;newEdgeStyle={&quot;edgeStyle&quot;:&quot;entityRelationEdgeStyle&quot;,&quot;startArrow&quot;:&quot;none&quot;,&quot;endArrow&quot;:&quot;none&quot;,&quot;segment&quot;:10,&quot;curved&quot;:1};" vertex="1" parent="1">
                    <mxGeometry x="470" y="565" width="200" height="20" as="geometry"/>
                </mxCell>
                <mxCell id="49" value="jsx语法学习" style="whiteSpace=wrap;html=1;rounded=1;arcSize=50;align=center;verticalAlign=middle;strokeWidth=1;autosize=1;spacing=4;treeFolding=1;treeMoving=1;newEdgeStyle={&quot;edgeStyle&quot;:&quot;entityRelationEdgeStyle&quot;,&quot;startArrow&quot;:&quot;none&quot;,&quot;endArrow&quot;:&quot;none&quot;,&quot;segment&quot;:10,&quot;curved&quot;:1};sketch=0;" vertex="1" parent="1">
                    <mxGeometry x="310" y="360" width="100" height="30" as="geometry"/>
                </mxCell>
                <mxCell id="50" value="" style="edgeStyle=entityRelationEdgeStyle;startArrow=none;endArrow=none;segment=10;curved=1;exitX=1.008;exitY=0.56;exitDx=0;exitDy=0;exitPerimeter=0;" edge="1" parent="1" target="49" source="9">
                    <mxGeometry relative="1" as="geometry">
                        <mxPoint x="229.4000000000001" y="450" as="sourcePoint"/>
                    </mxGeometry>
                </mxCell>
                <mxCell id="51" value="" style="edgeStyle=entityRelationEdgeStyle;startArrow=none;endArrow=none;segment=10;curved=1;exitX=1;exitY=0.5;exitDx=0;exitDy=0;" edge="1" parent="1">
                    <mxGeometry relative="1" as="geometry">
                        <mxPoint x="410" y="375" as="sourcePoint"/>
                        <mxPoint x="450" y="370" as="targetPoint"/>
                    </mxGeometry>
                </mxCell>
                <mxCell id="52" value="jsx可以将html和js混写 jsx最终被解析成js" style="whiteSpace=wrap;html=1;shape=partialRectangle;top=0;left=0;bottom=1;right=0;points=[[0,1],[1,1]];fillColor=none;align=center;verticalAlign=bottom;routingCenterY=0.5;snapToPoint=1;recursiveResize=0;autosize=1;treeFolding=1;treeMoving=1;newEdgeStyle={&quot;edgeStyle&quot;:&quot;entityRelationEdgeStyle&quot;,&quot;startArrow&quot;:&quot;none&quot;,&quot;endArrow&quot;:&quot;none&quot;,&quot;segment&quot;:10,&quot;curved&quot;:1};" vertex="1" parent="1">
                    <mxGeometry x="440" y="350" width="250" height="20" as="geometry"/>
                </mxCell>
                <mxCell id="54" value="antd-Design UI组件库熟悉" style="whiteSpace=wrap;html=1;rounded=1;arcSize=50;align=center;verticalAlign=middle;strokeWidth=1;autosize=1;spacing=4;treeFolding=1;treeMoving=1;newEdgeStyle={&quot;edgeStyle&quot;:&quot;entityRelationEdgeStyle&quot;,&quot;startArrow&quot;:&quot;none&quot;,&quot;endArrow&quot;:&quot;none&quot;,&quot;segment&quot;:10,&quot;curved&quot;:1};sketch=0;" vertex="1" parent="1">
                    <mxGeometry x="310" y="400" width="180" height="30" as="geometry"/>
                </mxCell>
                <mxCell id="55" value="react组件组件通信" style="whiteSpace=wrap;html=1;rounded=1;arcSize=50;align=center;verticalAlign=middle;strokeWidth=1;autosize=1;spacing=4;treeFolding=1;treeMoving=1;newEdgeStyle={&quot;edgeStyle&quot;:&quot;entityRelationEdgeStyle&quot;,&quot;startArrow&quot;:&quot;none&quot;,&quot;endArrow&quot;:&quot;none&quot;,&quot;segment&quot;:10,&quot;curved&quot;:1};sketch=0;" vertex="1" parent="1">
                    <mxGeometry x="310" y="440" width="140" height="30" as="geometry"/>
                </mxCell>
                <mxCell id="56" value="react 路由配置 跳转" style="whiteSpace=wrap;html=1;rounded=1;arcSize=50;align=center;verticalAlign=middle;strokeWidth=1;autosize=1;spacing=4;treeFolding=1;treeMoving=1;newEdgeStyle={&quot;edgeStyle&quot;:&quot;entityRelationEdgeStyle&quot;,&quot;startArrow&quot;:&quot;none&quot;,&quot;endArrow&quot;:&quot;none&quot;,&quot;segment&quot;:10,&quot;curved&quot;:1};sketch=0;" vertex="1" parent="1">
                    <mxGeometry x="310" y="525" width="150" height="30" as="geometry"/>
                </mxCell>
                <mxCell id="57" value="react 相关函数库学习" style="whiteSpace=wrap;html=1;rounded=1;arcSize=50;align=center;verticalAlign=middle;strokeWidth=1;autosize=1;spacing=4;treeFolding=1;treeMoving=1;newEdgeStyle={&quot;edgeStyle&quot;:&quot;entityRelationEdgeStyle&quot;,&quot;startArrow&quot;:&quot;none&quot;,&quot;endArrow&quot;:&quot;none&quot;,&quot;segment&quot;:10,&quot;curved&quot;:1};sketch=0;" vertex="1" parent="1">
                    <mxGeometry x="310" y="650" width="150" height="30" as="geometry"/>
                </mxCell>
                <mxCell id="58" value="axios 请求封装" style="whiteSpace=wrap;html=1;rounded=1;arcSize=50;align=center;verticalAlign=middle;strokeWidth=1;autosize=1;spacing=4;treeFolding=1;treeMoving=1;newEdgeStyle={&quot;edgeStyle&quot;:&quot;entityRelationEdgeStyle&quot;,&quot;startArrow&quot;:&quot;none&quot;,&quot;endArrow&quot;:&quot;none&quot;,&quot;segment&quot;:10,&quot;curved&quot;:1};sketch=0;" vertex="1" parent="1">
                    <mxGeometry x="310" y="570" width="120" height="30" as="geometry"/>
                </mxCell>
                <mxCell id="59" value="react类组件函数组件的区别写法方式" style="whiteSpace=wrap;html=1;rounded=1;arcSize=50;align=center;verticalAlign=middle;strokeWidth=1;autosize=1;spacing=4;treeFolding=1;treeMoving=1;newEdgeStyle={&quot;edgeStyle&quot;:&quot;entityRelationEdgeStyle&quot;,&quot;startArrow&quot;:&quot;none&quot;,&quot;endArrow&quot;:&quot;none&quot;,&quot;segment&quot;:10,&quot;curved&quot;:1};sketch=0;" vertex="1" parent="1">
                    <mxGeometry x="310" y="610" width="230" height="30" as="geometry"/>
                </mxCell>
                <mxCell id="60" value="ahooks" style="whiteSpace=wrap;html=1;shape=partialRectangle;top=0;left=0;bottom=1;right=0;points=[[0,1],[1,1]];fillColor=none;align=center;verticalAlign=bottom;routingCenterY=0.5;snapToPoint=1;recursiveResize=0;autosize=1;treeFolding=1;treeMoving=1;newEdgeStyle={&quot;edgeStyle&quot;:&quot;entityRelationEdgeStyle&quot;,&quot;startArrow&quot;:&quot;none&quot;,&quot;endArrow&quot;:&quot;none&quot;,&quot;segment&quot;:10,&quot;curved&quot;:1};" vertex="1" parent="1">
                    <mxGeometry x="540" y="690" width="70" height="20" as="geometry"/>
                </mxCell>
                <mxCell id="61" value="" style="edgeStyle=entityRelationEdgeStyle;startArrow=none;endArrow=none;segment=10;curved=1;exitX=1;exitY=0.5;exitDx=0;exitDy=0;" edge="1" source="57" target="60" parent="1">
                    <mxGeometry relative="1" as="geometry">
                        <mxPoint x="520" y="670" as="sourcePoint"/>
                    </mxGeometry>
                </mxCell>
                <mxCell id="62" value="antv 数据可视化学习" style="whiteSpace=wrap;html=1;rounded=1;arcSize=50;align=center;verticalAlign=middle;strokeWidth=1;autosize=1;spacing=4;treeFolding=1;treeMoving=1;newEdgeStyle={&quot;edgeStyle&quot;:&quot;entityRelationEdgeStyle&quot;,&quot;startArrow&quot;:&quot;none&quot;,&quot;endArrow&quot;:&quot;none&quot;,&quot;segment&quot;:10,&quot;curved&quot;:1};sketch=0;" vertex="1" parent="1">
                    <mxGeometry x="310" y="690" width="150" height="30" as="geometry"/>
                </mxCell>
                <mxCell id="63" value="underscore" style="whiteSpace=wrap;html=1;shape=partialRectangle;top=0;left=0;bottom=1;right=0;points=[[0,1],[1,1]];fillColor=none;align=center;verticalAlign=bottom;routingCenterY=0.5;snapToPoint=1;recursiveResize=0;autosize=1;treeFolding=1;treeMoving=1;newEdgeStyle={&quot;edgeStyle&quot;:&quot;entityRelationEdgeStyle&quot;,&quot;startArrow&quot;:&quot;none&quot;,&quot;endArrow&quot;:&quot;none&quot;,&quot;segment&quot;:10,&quot;curved&quot;:1};" vertex="1" parent="1">
                    <mxGeometry x="540" y="720" width="95" height="20" as="geometry"/>
                </mxCell>
                <mxCell id="64" value="" style="edgeStyle=entityRelationEdgeStyle;startArrow=none;endArrow=none;segment=10;curved=1;" edge="1" source="57" target="63" parent="1">
                    <mxGeometry relative="1" as="geometry">
                        <mxPoint x="460" y="640" as="sourcePoint"/>
                    </mxGeometry>
                </mxCell>
                <mxCell id="65" value="react 状态管理" style="whiteSpace=wrap;html=1;rounded=1;arcSize=50;align=center;verticalAlign=middle;strokeWidth=1;autosize=1;spacing=4;treeFolding=1;treeMoving=1;newEdgeStyle={&quot;edgeStyle&quot;:&quot;entityRelationEdgeStyle&quot;,&quot;startArrow&quot;:&quot;none&quot;,&quot;endArrow&quot;:&quot;none&quot;,&quot;segment&quot;:10,&quot;curved&quot;:1};sketch=0;" vertex="1" parent="1">
                    <mxGeometry x="310" y="480" width="120" height="30" as="geometry"/>
                </mxCell>
                <mxCell id="66" value="redux 全局状态管理" style="whiteSpace=wrap;html=1;shape=partialRectangle;top=0;left=0;bottom=1;right=0;points=[[0,1],[1,1]];fillColor=none;align=center;verticalAlign=bottom;routingCenterY=0.5;snapToPoint=1;recursiveResize=0;autosize=1;treeFolding=1;treeMoving=1;newEdgeStyle={&quot;edgeStyle&quot;:&quot;entityRelationEdgeStyle&quot;,&quot;startArrow&quot;:&quot;none&quot;,&quot;endArrow&quot;:&quot;none&quot;,&quot;segment&quot;:10,&quot;curved&quot;:1};" vertex="1" parent="1">
                    <mxGeometry x="470" y="470" width="140" height="20" as="geometry"/>
                </mxCell>
                <mxCell id="67" value="" style="edgeStyle=entityRelationEdgeStyle;startArrow=none;endArrow=none;segment=10;curved=1;exitX=1;exitY=0.5;exitDx=0;exitDy=0;" edge="1" source="65" target="66" parent="1">
                    <mxGeometry relative="1" as="geometry">
                        <mxPoint x="460" y="510" as="sourcePoint"/>
                    </mxGeometry>
                </mxCell>
                <mxCell id="68" value="redux 全局状态管理" style="whiteSpace=wrap;html=1;shape=partialRectangle;top=0;left=0;bottom=1;right=0;points=[[0,1],[1,1]];fillColor=none;align=center;verticalAlign=bottom;routingCenterY=0.5;snapToPoint=1;recursiveResize=0;autosize=1;treeFolding=1;treeMoving=1;newEdgeStyle={&quot;edgeStyle&quot;:&quot;entityRelationEdgeStyle&quot;,&quot;startArrow&quot;:&quot;none&quot;,&quot;endArrow&quot;:&quot;none&quot;,&quot;segment&quot;:10,&quot;curved&quot;:1};" vertex="1" parent="1">
                    <mxGeometry x="470" y="470" width="140" height="20" as="geometry"/>
                </mxCell>
                <mxCell id="69" value="" style="edgeStyle=entityRelationEdgeStyle;startArrow=none;endArrow=none;segment=10;curved=1;exitX=1;exitY=0.5;exitDx=0;exitDy=0;" edge="1" source="65" parent="1">
                    <mxGeometry relative="1" as="geometry">
                        <mxPoint x="430" y="545" as="sourcePoint"/>
                        <mxPoint x="470" y="525" as="targetPoint"/>
                    </mxGeometry>
                </mxCell>
                <mxCell id="70" value="react-hooks组件状态管理" style="whiteSpace=wrap;html=1;shape=partialRectangle;top=0;left=0;bottom=1;right=0;points=[[0,1],[1,1]];fillColor=none;align=center;verticalAlign=bottom;routingCenterY=0.5;snapToPoint=1;recursiveResize=0;autosize=1;treeFolding=1;treeMoving=1;newEdgeStyle={&quot;edgeStyle&quot;:&quot;entityRelationEdgeStyle&quot;,&quot;startArrow&quot;:&quot;none&quot;,&quot;endArrow&quot;:&quot;none&quot;,&quot;segment&quot;:10,&quot;curved&quot;:1};" vertex="1" parent="1">
                    <mxGeometry x="470" y="505" width="170" height="20" as="geometry"/>
                </mxCell>
                <mxCell id="71" value="scss less 学习css写法" style="whiteSpace=wrap;html=1;rounded=1;arcSize=50;align=center;verticalAlign=middle;strokeWidth=1;autosize=1;spacing=4;treeFolding=1;treeMoving=1;newEdgeStyle={&quot;edgeStyle&quot;:&quot;entityRelationEdgeStyle&quot;,&quot;startArrow&quot;:&quot;none&quot;,&quot;endArrow&quot;:&quot;none&quot;,&quot;segment&quot;:10,&quot;curved&quot;:1};sketch=0;" vertex="1" parent="1">
                    <mxGeometry x="310" y="730" width="160" height="30" as="geometry"/>
                </mxCell>
                <mxCell id="72" value="classnames 辅助class类名判断" style="whiteSpace=wrap;html=1;shape=partialRectangle;top=0;left=0;bottom=1;right=0;points=[[0,1],[1,1]];fillColor=none;align=center;verticalAlign=bottom;routingCenterY=0.5;snapToPoint=1;recursiveResize=0;autosize=1;treeFolding=1;treeMoving=1;newEdgeStyle={&quot;edgeStyle&quot;:&quot;entityRelationEdgeStyle&quot;,&quot;startArrow&quot;:&quot;none&quot;,&quot;endArrow&quot;:&quot;none&quot;,&quot;segment&quot;:10,&quot;curved&quot;:1};" vertex="1" parent="1">
                    <mxGeometry x="560" y="640" width="200" height="20" as="geometry"/>
                </mxCell>
                <mxCell id="73" value="" style="edgeStyle=entityRelationEdgeStyle;startArrow=none;endArrow=none;segment=10;curved=1;exitX=1;exitY=0.5;exitDx=0;exitDy=0;" edge="1" source="57" parent="1">
                    <mxGeometry relative="1" as="geometry">
                        <mxPoint x="460" y="640" as="sourcePoint"/>
                        <mxPoint x="540" y="680" as="targetPoint"/>
                    </mxGeometry>
                </mxCell>
                <mxCell id="74" value="lodash" style="whiteSpace=wrap;html=1;shape=partialRectangle;top=0;left=0;bottom=1;right=0;points=[[0,1],[1,1]];fillColor=none;align=center;verticalAlign=bottom;routingCenterY=0.5;snapToPoint=1;recursiveResize=0;autosize=1;treeFolding=1;treeMoving=1;newEdgeStyle={&quot;edgeStyle&quot;:&quot;entityRelationEdgeStyle&quot;,&quot;startArrow&quot;:&quot;none&quot;,&quot;endArrow&quot;:&quot;none&quot;,&quot;segment&quot;:10,&quot;curved&quot;:1};" vertex="1" parent="1">
                    <mxGeometry x="540.5" y="747.5" width="70" height="20" as="geometry"/>
                </mxCell>
                <mxCell id="75" value="" style="edgeStyle=entityRelationEdgeStyle;startArrow=none;endArrow=none;segment=10;curved=1;exitX=1;exitY=0.5;exitDx=0;exitDy=0;" edge="1" source="57" target="74" parent="1">
                    <mxGeometry relative="1" as="geometry">
                        <mxPoint x="465.5" y="692.5" as="sourcePoint"/>
                    </mxGeometry>
                </mxCell>
                <mxCell id="76" value="" style="edgeStyle=entityRelationEdgeStyle;startArrow=none;endArrow=none;segment=10;curved=1;exitX=1;exitY=0.5;exitDx=0;exitDy=0;" edge="1" source="58" parent="1">
                    <mxGeometry relative="1" as="geometry">
                        <mxPoint x="435" y="555" as="sourcePoint"/>
                        <mxPoint x="475" y="585" as="targetPoint"/>
                    </mxGeometry>
                </mxCell>
                <mxCell id="77" value="请求发送前进行拦截 响应时拦截" style="whiteSpace=wrap;html=1;shape=partialRectangle;top=0;left=0;bottom=1;right=0;points=[[0,1],[1,1]];fillColor=none;align=center;verticalAlign=bottom;routingCenterY=0.5;snapToPoint=1;recursiveResize=0;autosize=1;treeFolding=1;treeMoving=1;newEdgeStyle={&quot;edgeStyle&quot;:&quot;entityRelationEdgeStyle&quot;,&quot;startArrow&quot;:&quot;none&quot;,&quot;endArrow&quot;:&quot;none&quot;,&quot;segment&quot;:10,&quot;curved&quot;:1};" vertex="1" parent="1">
                    <mxGeometry x="470" y="565" width="200" height="20" as="geometry"/>
                </mxCell>
                <mxCell id="78" value="jsx语法学习" style="whiteSpace=wrap;html=1;rounded=1;arcSize=50;align=center;verticalAlign=middle;strokeWidth=1;autosize=1;spacing=4;treeFolding=1;treeMoving=1;newEdgeStyle={&quot;edgeStyle&quot;:&quot;entityRelationEdgeStyle&quot;,&quot;startArrow&quot;:&quot;none&quot;,&quot;endArrow&quot;:&quot;none&quot;,&quot;segment&quot;:10,&quot;curved&quot;:1};sketch=0;" vertex="1" parent="1">
                    <mxGeometry x="310" y="360" width="100" height="30" as="geometry"/>
                </mxCell>
                <mxCell id="79" value="" style="edgeStyle=entityRelationEdgeStyle;startArrow=none;endArrow=none;segment=10;curved=1;exitX=1;exitY=0.5;exitDx=0;exitDy=0;" edge="1" parent="1">
                    <mxGeometry relative="1" as="geometry">
                        <mxPoint x="410" y="375" as="sourcePoint"/>
                        <mxPoint x="450" y="370" as="targetPoint"/>
                    </mxGeometry>
                </mxCell>
                <mxCell id="80" value="jsx可以将html和js混写 jsx最终被解析成js" style="whiteSpace=wrap;html=1;shape=partialRectangle;top=0;left=0;bottom=1;right=0;points=[[0,1],[1,1]];fillColor=none;align=center;verticalAlign=bottom;routingCenterY=0.5;snapToPoint=1;recursiveResize=0;autosize=1;treeFolding=1;treeMoving=1;newEdgeStyle={&quot;edgeStyle&quot;:&quot;entityRelationEdgeStyle&quot;,&quot;startArrow&quot;:&quot;none&quot;,&quot;endArrow&quot;:&quot;none&quot;,&quot;segment&quot;:10,&quot;curved&quot;:1};" vertex="1" parent="1">
                    <mxGeometry x="440" y="350" width="250" height="20" as="geometry"/>
                </mxCell>
                <mxCell id="81" value="" style="edgeStyle=entityRelationEdgeStyle;startArrow=none;endArrow=none;segment=10;curved=1;exitX=1.008;exitY=0.56;exitDx=0;exitDy=0;exitPerimeter=0;" edge="1" target="78" parent="1">
                    <mxGeometry relative="1" as="geometry">
                        <mxPoint x="230.79999999999995" y="496.20000000000005" as="sourcePoint"/>
                    </mxGeometry>
                </mxCell>
                <mxCell id="82" value="" style="edgeStyle=entityRelationEdgeStyle;startArrow=none;endArrow=none;segment=10;curved=1;exitX=0.994;exitY=0.28;exitDx=0;exitDy=0;exitPerimeter=0;" edge="1" target="54" parent="1">
                    <mxGeometry relative="1" as="geometry">
                        <mxPoint x="229.4000000000001" y="490.6" as="sourcePoint"/>
                    </mxGeometry>
                </mxCell>
                <mxCell id="83" value="" style="edgeStyle=entityRelationEdgeStyle;startArrow=none;endArrow=none;segment=10;curved=1;" edge="1" target="55" parent="1">
                    <mxGeometry relative="1" as="geometry">
                        <mxPoint x="230" y="491" as="sourcePoint"/>
                    </mxGeometry>
                </mxCell>
                <mxCell id="84" value="" style="edgeStyle=entityRelationEdgeStyle;startArrow=none;endArrow=none;segment=10;curved=1;" edge="1" target="65" parent="1">
                    <mxGeometry relative="1" as="geometry">
                        <mxPoint x="230" y="495" as="sourcePoint"/>
                    </mxGeometry>
                </mxCell>
                <mxCell id="85" value="" style="edgeStyle=entityRelationEdgeStyle;startArrow=none;endArrow=none;segment=10;curved=1;exitX=0.994;exitY=0.36;exitDx=0;exitDy=0;exitPerimeter=0;" edge="1" target="56" parent="1">
                    <mxGeometry relative="1" as="geometry">
                        <mxPoint x="229.4000000000001" y="492.20000000000005" as="sourcePoint"/>
                    </mxGeometry>
                </mxCell>
                <mxCell id="86" value="" style="edgeStyle=entityRelationEdgeStyle;startArrow=none;endArrow=none;segment=10;curved=1;exitX=0.994;exitY=0.56;exitDx=0;exitDy=0;exitPerimeter=0;" edge="1" target="58" parent="1">
                    <mxGeometry relative="1" as="geometry">
                        <mxPoint x="229.4000000000001" y="496.20000000000005" as="sourcePoint"/>
                    </mxGeometry>
                </mxCell>
                <mxCell id="87" value="" style="edgeStyle=entityRelationEdgeStyle;startArrow=none;endArrow=none;segment=10;curved=1;exitX=0.994;exitY=0.6;exitDx=0;exitDy=0;exitPerimeter=0;" edge="1" target="59" parent="1">
                    <mxGeometry relative="1" as="geometry">
                        <mxPoint x="229.4000000000001" y="497" as="sourcePoint"/>
                    </mxGeometry>
                </mxCell>
                <mxCell id="88" value="antd-Design UI组件库熟悉" style="whiteSpace=wrap;html=1;rounded=1;arcSize=50;align=center;verticalAlign=middle;strokeWidth=1;autosize=1;spacing=4;treeFolding=1;treeMoving=1;newEdgeStyle={&quot;edgeStyle&quot;:&quot;entityRelationEdgeStyle&quot;,&quot;startArrow&quot;:&quot;none&quot;,&quot;endArrow&quot;:&quot;none&quot;,&quot;segment&quot;:10,&quot;curved&quot;:1};sketch=0;" vertex="1" parent="1">
                    <mxGeometry x="310" y="400" width="180" height="30" as="geometry"/>
                </mxCell>
                <mxCell id="89" value="react组件组件通信" style="whiteSpace=wrap;html=1;rounded=1;arcSize=50;align=center;verticalAlign=middle;strokeWidth=1;autosize=1;spacing=4;treeFolding=1;treeMoving=1;newEdgeStyle={&quot;edgeStyle&quot;:&quot;entityRelationEdgeStyle&quot;,&quot;startArrow&quot;:&quot;none&quot;,&quot;endArrow&quot;:&quot;none&quot;,&quot;segment&quot;:10,&quot;curved&quot;:1};sketch=0;" vertex="1" parent="1">
                    <mxGeometry x="310" y="440" width="140" height="30" as="geometry"/>
                </mxCell>
                <mxCell id="90" value="react 路由配置 跳转" style="whiteSpace=wrap;html=1;rounded=1;arcSize=50;align=center;verticalAlign=middle;strokeWidth=1;autosize=1;spacing=4;treeFolding=1;treeMoving=1;newEdgeStyle={&quot;edgeStyle&quot;:&quot;entityRelationEdgeStyle&quot;,&quot;startArrow&quot;:&quot;none&quot;,&quot;endArrow&quot;:&quot;none&quot;,&quot;segment&quot;:10,&quot;curved&quot;:1};sketch=0;" vertex="1" parent="1">
                    <mxGeometry x="310" y="525" width="150" height="30" as="geometry"/>
                </mxCell>
                <mxCell id="91" value="react 相关函数库学习" style="whiteSpace=wrap;html=1;rounded=1;arcSize=50;align=center;verticalAlign=middle;strokeWidth=1;autosize=1;spacing=4;treeFolding=1;treeMoving=1;newEdgeStyle={&quot;edgeStyle&quot;:&quot;entityRelationEdgeStyle&quot;,&quot;startArrow&quot;:&quot;none&quot;,&quot;endArrow&quot;:&quot;none&quot;,&quot;segment&quot;:10,&quot;curved&quot;:1};sketch=0;" vertex="1" parent="1">
                    <mxGeometry x="310" y="650" width="150" height="30" as="geometry"/>
                </mxCell>
                <mxCell id="92" value="axios 请求封装" style="whiteSpace=wrap;html=1;rounded=1;arcSize=50;align=center;verticalAlign=middle;strokeWidth=1;autosize=1;spacing=4;treeFolding=1;treeMoving=1;newEdgeStyle={&quot;edgeStyle&quot;:&quot;entityRelationEdgeStyle&quot;,&quot;startArrow&quot;:&quot;none&quot;,&quot;endArrow&quot;:&quot;none&quot;,&quot;segment&quot;:10,&quot;curved&quot;:1};sketch=0;" vertex="1" parent="1">
                    <mxGeometry x="310" y="570" width="120" height="30" as="geometry"/>
                </mxCell>
                <mxCell id="93" value="react类组件函数组件的区别写法方式" style="whiteSpace=wrap;html=1;rounded=1;arcSize=50;align=center;verticalAlign=middle;strokeWidth=1;autosize=1;spacing=4;treeFolding=1;treeMoving=1;newEdgeStyle={&quot;edgeStyle&quot;:&quot;entityRelationEdgeStyle&quot;,&quot;startArrow&quot;:&quot;none&quot;,&quot;endArrow&quot;:&quot;none&quot;,&quot;segment&quot;:10,&quot;curved&quot;:1};sketch=0;" vertex="1" parent="1">
                    <mxGeometry x="310" y="610" width="230" height="30" as="geometry"/>
                </mxCell>
                <mxCell id="94" value="ahooks" style="whiteSpace=wrap;html=1;shape=partialRectangle;top=0;left=0;bottom=1;right=0;points=[[0,1],[1,1]];fillColor=none;align=center;verticalAlign=bottom;routingCenterY=0.5;snapToPoint=1;recursiveResize=0;autosize=1;treeFolding=1;treeMoving=1;newEdgeStyle={&quot;edgeStyle&quot;:&quot;entityRelationEdgeStyle&quot;,&quot;startArrow&quot;:&quot;none&quot;,&quot;endArrow&quot;:&quot;none&quot;,&quot;segment&quot;:10,&quot;curved&quot;:1};" vertex="1" parent="1">
                    <mxGeometry x="540" y="690" width="70" height="20" as="geometry"/>
                </mxCell>
                <mxCell id="95" value="" style="edgeStyle=entityRelationEdgeStyle;startArrow=none;endArrow=none;segment=10;curved=1;exitX=1;exitY=0.5;exitDx=0;exitDy=0;" edge="1" source="91" target="94" parent="1">
                    <mxGeometry relative="1" as="geometry">
                        <mxPoint x="520" y="670" as="sourcePoint"/>
                    </mxGeometry>
                </mxCell>
                <mxCell id="96" value="antv 数据可视化学习" style="whiteSpace=wrap;html=1;rounded=1;arcSize=50;align=center;verticalAlign=middle;strokeWidth=1;autosize=1;spacing=4;treeFolding=1;treeMoving=1;newEdgeStyle={&quot;edgeStyle&quot;:&quot;entityRelationEdgeStyle&quot;,&quot;startArrow&quot;:&quot;none&quot;,&quot;endArrow&quot;:&quot;none&quot;,&quot;segment&quot;:10,&quot;curved&quot;:1};sketch=0;" vertex="1" parent="1">
                    <mxGeometry x="310" y="690" width="150" height="30" as="geometry"/>
                </mxCell>
                <mxCell id="97" value="underscore" style="whiteSpace=wrap;html=1;shape=partialRectangle;top=0;left=0;bottom=1;right=0;points=[[0,1],[1,1]];fillColor=none;align=center;verticalAlign=bottom;routingCenterY=0.5;snapToPoint=1;recursiveResize=0;autosize=1;treeFolding=1;treeMoving=1;newEdgeStyle={&quot;edgeStyle&quot;:&quot;entityRelationEdgeStyle&quot;,&quot;startArrow&quot;:&quot;none&quot;,&quot;endArrow&quot;:&quot;none&quot;,&quot;segment&quot;:10,&quot;curved&quot;:1};" vertex="1" parent="1">
                    <mxGeometry x="540" y="720" width="95" height="20" as="geometry"/>
                </mxCell>
                <mxCell id="98" value="" style="edgeStyle=entityRelationEdgeStyle;startArrow=none;endArrow=none;segment=10;curved=1;" edge="1" source="91" target="97" parent="1">
                    <mxGeometry relative="1" as="geometry">
                        <mxPoint x="460" y="640" as="sourcePoint"/>
                    </mxGeometry>
                </mxCell>
                <mxCell id="99" value="react 状态管理" style="whiteSpace=wrap;html=1;rounded=1;arcSize=50;align=center;verticalAlign=middle;strokeWidth=1;autosize=1;spacing=4;treeFolding=1;treeMoving=1;newEdgeStyle={&quot;edgeStyle&quot;:&quot;entityRelationEdgeStyle&quot;,&quot;startArrow&quot;:&quot;none&quot;,&quot;endArrow&quot;:&quot;none&quot;,&quot;segment&quot;:10,&quot;curved&quot;:1};sketch=0;" vertex="1" parent="1">
                    <mxGeometry x="310" y="480" width="120" height="30" as="geometry"/>
                </mxCell>
                <mxCell id="100" value="redux 全局状态管理" style="whiteSpace=wrap;html=1;shape=partialRectangle;top=0;left=0;bottom=1;right=0;points=[[0,1],[1,1]];fillColor=none;align=center;verticalAlign=bottom;routingCenterY=0.5;snapToPoint=1;recursiveResize=0;autosize=1;treeFolding=1;treeMoving=1;newEdgeStyle={&quot;edgeStyle&quot;:&quot;entityRelationEdgeStyle&quot;,&quot;startArrow&quot;:&quot;none&quot;,&quot;endArrow&quot;:&quot;none&quot;,&quot;segment&quot;:10,&quot;curved&quot;:1};" vertex="1" parent="1">
                    <mxGeometry x="470" y="470" width="140" height="20" as="geometry"/>
                </mxCell>
                <mxCell id="101" value="" style="edgeStyle=entityRelationEdgeStyle;startArrow=none;endArrow=none;segment=10;curved=1;exitX=1;exitY=0.5;exitDx=0;exitDy=0;" edge="1" source="99" target="100" parent="1">
                    <mxGeometry relative="1" as="geometry">
                        <mxPoint x="460" y="510" as="sourcePoint"/>
                    </mxGeometry>
                </mxCell>
                <mxCell id="102" value="redux 全局状态管理" style="whiteSpace=wrap;html=1;shape=partialRectangle;top=0;left=0;bottom=1;right=0;points=[[0,1],[1,1]];fillColor=none;align=center;verticalAlign=bottom;routingCenterY=0.5;snapToPoint=1;recursiveResize=0;autosize=1;treeFolding=1;treeMoving=1;newEdgeStyle={&quot;edgeStyle&quot;:&quot;entityRelationEdgeStyle&quot;,&quot;startArrow&quot;:&quot;none&quot;,&quot;endArrow&quot;:&quot;none&quot;,&quot;segment&quot;:10,&quot;curved&quot;:1};" vertex="1" parent="1">
                    <mxGeometry x="470" y="470" width="140" height="20" as="geometry"/>
                </mxCell>
                <mxCell id="103" value="" style="edgeStyle=entityRelationEdgeStyle;startArrow=none;endArrow=none;segment=10;curved=1;exitX=1;exitY=0.5;exitDx=0;exitDy=0;" edge="1" source="99" parent="1">
                    <mxGeometry relative="1" as="geometry">
                        <mxPoint x="430" y="545" as="sourcePoint"/>
                        <mxPoint x="470" y="525" as="targetPoint"/>
                    </mxGeometry>
                </mxCell>
                <mxCell id="104" value="react-hooks组件状态管理" style="whiteSpace=wrap;html=1;shape=partialRectangle;top=0;left=0;bottom=1;right=0;points=[[0,1],[1,1]];fillColor=none;align=center;verticalAlign=bottom;routingCenterY=0.5;snapToPoint=1;recursiveResize=0;autosize=1;treeFolding=1;treeMoving=1;newEdgeStyle={&quot;edgeStyle&quot;:&quot;entityRelationEdgeStyle&quot;,&quot;startArrow&quot;:&quot;none&quot;,&quot;endArrow&quot;:&quot;none&quot;,&quot;segment&quot;:10,&quot;curved&quot;:1};" vertex="1" parent="1">
                    <mxGeometry x="470" y="505" width="170" height="20" as="geometry"/>
                </mxCell>
                <mxCell id="105" value="scss less 学习css写法" style="whiteSpace=wrap;html=1;rounded=1;arcSize=50;align=center;verticalAlign=middle;strokeWidth=1;autosize=1;spacing=4;treeFolding=1;treeMoving=1;newEdgeStyle={&quot;edgeStyle&quot;:&quot;entityRelationEdgeStyle&quot;,&quot;startArrow&quot;:&quot;none&quot;,&quot;endArrow&quot;:&quot;none&quot;,&quot;segment&quot;:10,&quot;curved&quot;:1};sketch=0;" vertex="1" parent="1">
                    <mxGeometry x="310" y="730" width="160" height="30" as="geometry"/>
                </mxCell>
                <mxCell id="106" value="classnames 辅助class类名判断" style="whiteSpace=wrap;html=1;shape=partialRectangle;top=0;left=0;bottom=1;right=0;points=[[0,1],[1,1]];fillColor=none;align=center;verticalAlign=bottom;routingCenterY=0.5;snapToPoint=1;recursiveResize=0;autosize=1;treeFolding=1;treeMoving=1;newEdgeStyle={&quot;edgeStyle&quot;:&quot;entityRelationEdgeStyle&quot;,&quot;startArrow&quot;:&quot;none&quot;,&quot;endArrow&quot;:&quot;none&quot;,&quot;segment&quot;:10,&quot;curved&quot;:1};" vertex="1" parent="1">
                    <mxGeometry x="560" y="640" width="200" height="20" as="geometry"/>
                </mxCell>
                <mxCell id="107" value="" style="edgeStyle=entityRelationEdgeStyle;startArrow=none;endArrow=none;segment=10;curved=1;exitX=1;exitY=0.5;exitDx=0;exitDy=0;" edge="1" source="91" parent="1">
                    <mxGeometry relative="1" as="geometry">
                        <mxPoint x="460" y="640" as="sourcePoint"/>
                        <mxPoint x="540" y="680" as="targetPoint"/>
                    </mxGeometry>
                </mxCell>
                <mxCell id="108" value="lodash" style="whiteSpace=wrap;html=1;shape=partialRectangle;top=0;left=0;bottom=1;right=0;points=[[0,1],[1,1]];fillColor=none;align=center;verticalAlign=bottom;routingCenterY=0.5;snapToPoint=1;recursiveResize=0;autosize=1;treeFolding=1;treeMoving=1;newEdgeStyle={&quot;edgeStyle&quot;:&quot;entityRelationEdgeStyle&quot;,&quot;startArrow&quot;:&quot;none&quot;,&quot;endArrow&quot;:&quot;none&quot;,&quot;segment&quot;:10,&quot;curved&quot;:1};" vertex="1" parent="1">
                    <mxGeometry x="540.5" y="747.5" width="70" height="20" as="geometry"/>
                </mxCell>
                <mxCell id="109" value="" style="edgeStyle=entityRelationEdgeStyle;startArrow=none;endArrow=none;segment=10;curved=1;exitX=1;exitY=0.5;exitDx=0;exitDy=0;" edge="1" source="91" target="108" parent="1">
                    <mxGeometry relative="1" as="geometry">
                        <mxPoint x="465.5" y="692.5" as="sourcePoint"/>
                    </mxGeometry>
                </mxCell>
                <mxCell id="110" value="" style="edgeStyle=entityRelationEdgeStyle;startArrow=none;endArrow=none;segment=10;curved=1;exitX=1;exitY=0.5;exitDx=0;exitDy=0;" edge="1" source="92" parent="1">
                    <mxGeometry relative="1" as="geometry">
                        <mxPoint x="435" y="555" as="sourcePoint"/>
                        <mxPoint x="475" y="585" as="targetPoint"/>
                    </mxGeometry>
                </mxCell>
                <mxCell id="111" value="请求发送前进行拦截 响应时拦截" style="whiteSpace=wrap;html=1;shape=partialRectangle;top=0;left=0;bottom=1;right=0;points=[[0,1],[1,1]];fillColor=none;align=center;verticalAlign=bottom;routingCenterY=0.5;snapToPoint=1;recursiveResize=0;autosize=1;treeFolding=1;treeMoving=1;newEdgeStyle={&quot;edgeStyle&quot;:&quot;entityRelationEdgeStyle&quot;,&quot;startArrow&quot;:&quot;none&quot;,&quot;endArrow&quot;:&quot;none&quot;,&quot;segment&quot;:10,&quot;curved&quot;:1};" vertex="1" parent="1">
                    <mxGeometry x="470" y="565" width="200" height="20" as="geometry"/>
                </mxCell>
                <mxCell id="112" value="jsx语法学习" style="whiteSpace=wrap;html=1;rounded=1;arcSize=50;align=center;verticalAlign=middle;strokeWidth=1;autosize=1;spacing=4;treeFolding=1;treeMoving=1;newEdgeStyle={&quot;edgeStyle&quot;:&quot;entityRelationEdgeStyle&quot;,&quot;startArrow&quot;:&quot;none&quot;,&quot;endArrow&quot;:&quot;none&quot;,&quot;segment&quot;:10,&quot;curved&quot;:1};sketch=0;" vertex="1" parent="1">
                    <mxGeometry x="310" y="360" width="100" height="30" as="geometry"/>
                </mxCell>
                <mxCell id="113" value="" style="edgeStyle=entityRelationEdgeStyle;startArrow=none;endArrow=none;segment=10;curved=1;exitX=1;exitY=0.5;exitDx=0;exitDy=0;" edge="1" parent="1">
                    <mxGeometry relative="1" as="geometry">
                        <mxPoint x="410" y="375" as="sourcePoint"/>
                        <mxPoint x="450" y="370" as="targetPoint"/>
                    </mxGeometry>
                </mxCell>
                <mxCell id="114" value="jsx可以将html和js混写 jsx最终被解析成js" style="whiteSpace=wrap;html=1;shape=partialRectangle;top=0;left=0;bottom=1;right=0;points=[[0,1],[1,1]];fillColor=none;align=center;verticalAlign=bottom;routingCenterY=0.5;snapToPoint=1;recursiveResize=0;autosize=1;treeFolding=1;treeMoving=1;newEdgeStyle={&quot;edgeStyle&quot;:&quot;entityRelationEdgeStyle&quot;,&quot;startArrow&quot;:&quot;none&quot;,&quot;endArrow&quot;:&quot;none&quot;,&quot;segment&quot;:10,&quot;curved&quot;:1};" vertex="1" parent="1">
                    <mxGeometry x="440" y="350" width="250" height="20" as="geometry"/>
                </mxCell>
                <mxCell id="115" value="" style="edgeStyle=entityRelationEdgeStyle;startArrow=none;endArrow=none;segment=10;curved=1;exitX=1.008;exitY=0.56;exitDx=0;exitDy=0;exitPerimeter=0;" edge="1" target="112" parent="1">
                    <mxGeometry relative="1" as="geometry">
                        <mxPoint x="230.79999999999995" y="496.20000000000005" as="sourcePoint"/>
                    </mxGeometry>
                </mxCell>
                <mxCell id="116" value="" style="edgeStyle=entityRelationEdgeStyle;startArrow=none;endArrow=none;segment=10;curved=1;exitX=0.994;exitY=0.28;exitDx=0;exitDy=0;exitPerimeter=0;" edge="1" target="88" parent="1">
                    <mxGeometry relative="1" as="geometry">
                        <mxPoint x="229.4000000000001" y="490.6" as="sourcePoint"/>
                    </mxGeometry>
                </mxCell>
                <mxCell id="117" value="" style="edgeStyle=entityRelationEdgeStyle;startArrow=none;endArrow=none;segment=10;curved=1;" edge="1" target="89" parent="1">
                    <mxGeometry relative="1" as="geometry">
                        <mxPoint x="230" y="491" as="sourcePoint"/>
                    </mxGeometry>
                </mxCell>
                <mxCell id="118" value="" style="edgeStyle=entityRelationEdgeStyle;startArrow=none;endArrow=none;segment=10;curved=1;" edge="1" target="99" parent="1">
                    <mxGeometry relative="1" as="geometry">
                        <mxPoint x="230" y="495" as="sourcePoint"/>
                    </mxGeometry>
                </mxCell>
                <mxCell id="119" value="" style="edgeStyle=entityRelationEdgeStyle;startArrow=none;endArrow=none;segment=10;curved=1;exitX=0.994;exitY=0.36;exitDx=0;exitDy=0;exitPerimeter=0;" edge="1" target="90" parent="1">
                    <mxGeometry relative="1" as="geometry">
                        <mxPoint x="229.4000000000001" y="492.20000000000005" as="sourcePoint"/>
                    </mxGeometry>
                </mxCell>
                <mxCell id="120" value="" style="edgeStyle=entityRelationEdgeStyle;startArrow=none;endArrow=none;segment=10;curved=1;exitX=0.994;exitY=0.56;exitDx=0;exitDy=0;exitPerimeter=0;" edge="1" target="92" parent="1">
                    <mxGeometry relative="1" as="geometry">
                        <mxPoint x="229.4000000000001" y="496.20000000000005" as="sourcePoint"/>
                    </mxGeometry>
                </mxCell>
                <mxCell id="121" value="" style="edgeStyle=entityRelationEdgeStyle;startArrow=none;endArrow=none;segment=10;curved=1;exitX=0.994;exitY=0.6;exitDx=0;exitDy=0;exitPerimeter=0;" edge="1" target="93" parent="1">
                    <mxGeometry relative="1" as="geometry">
                        <mxPoint x="229.4000000000001" y="497" as="sourcePoint"/>
                    </mxGeometry>
                </mxCell>
                <mxCell id="122" value="" style="edgeStyle=entityRelationEdgeStyle;startArrow=none;endArrow=none;segment=10;curved=1;" edge="1" parent="1">
                    <mxGeometry relative="1" as="geometry">
                        <mxPoint x="230" y="500" as="sourcePoint"/>
                        <mxPoint x="310" y="665" as="targetPoint"/>
                    </mxGeometry>
                </mxCell>
                <mxCell id="123" value="" style="edgeStyle=entityRelationEdgeStyle;startArrow=none;endArrow=none;segment=10;curved=1;" edge="1" parent="1">
                    <mxGeometry relative="1" as="geometry">
                        <mxPoint x="229" y="491" as="sourcePoint"/>
                        <mxPoint x="310" y="705" as="targetPoint"/>
                    </mxGeometry>
                </mxCell>
                <mxCell id="124" value="" style="edgeStyle=entityRelationEdgeStyle;startArrow=none;endArrow=none;segment=10;curved=1;" edge="1" source="125" parent="1">
                    <mxGeometry relative="1" as="geometry">
                        <mxPoint x="229" y="535" as="sourcePoint"/>
                        <mxPoint x="310" y="745" as="targetPoint"/>
                    </mxGeometry>
                </mxCell>
                <mxCell id="125" value="react及生态学习" style="text;html=1;align=center;verticalAlign=middle;resizable=0;points=[];autosize=1;" vertex="1" parent="1">
                    <mxGeometry x="130" y="485" width="100" height="20" as="geometry"/>
                </mxCell>
                <mxCell id="132" style="edgeStyle=orthogonalEdgeStyle;rounded=0;orthogonalLoop=1;jettySize=auto;html=1;" edge="1" parent="1">
                    <mxGeometry relative="1" as="geometry">
                        <mxPoint x="130" y="260" as="targetPoint"/>
                        <Array as="points">
                            <mxPoint x="40" y="260"/>
                        </Array>
                        <mxPoint x="40" y="480" as="sourcePoint"/>
                    </mxGeometry>
                </mxCell>
                <mxCell id="133" value="一月中旬" style="text;html=1;align=center;verticalAlign=middle;resizable=0;points=[];autosize=1;" vertex="1" parent="1">
                    <mxGeometry x="50" y="240" width="60" height="20" as="geometry"/>
                </mxCell>
                <mxCell id="135" value="衡水质量趋势统计监控" style="text;html=1;align=center;verticalAlign=middle;resizable=0;points=[];autosize=1;" vertex="1" parent="1">
                    <mxGeometry x="130" y="250" width="140" height="20" as="geometry"/>
                </mxCell>
                <mxCell id="138" style="edgeStyle=orthogonalEdgeStyle;rounded=0;orthogonalLoop=1;jettySize=auto;html=1;exitX=0.5;exitY=0;exitDx=0;exitDy=0;" edge="1" parent="1" source="4">
                    <mxGeometry relative="1" as="geometry">
                        <mxPoint x="130" y="305" as="targetPoint"/>
                        <Array as="points">
                            <mxPoint x="40" y="305"/>
                        </Array>
                        <mxPoint x="40" y="480" as="sourcePoint"/>
                    </mxGeometry>
                </mxCell>
                <mxCell id="139" value="一月中下旬" style="text;html=1;align=center;verticalAlign=middle;resizable=0;points=[];autosize=1;" vertex="1" parent="1">
                    <mxGeometry x="40" y="285" width="80" height="20" as="geometry"/>
                </mxCell>
                <mxCell id="140" value="配合李栋将衡水数据质量控制系统换成淮南的数据&amp;nbsp; 负责前端的数据对接和页面显示问题" style="text;html=1;align=center;verticalAlign=middle;resizable=0;points=[];autosize=1;" vertex="1" parent="1">
                    <mxGeometry x="130" y="295" width="480" height="20" as="geometry"/>
                </mxCell>
                <mxCell id="142" value="数据采集系统页面加载数据缓慢插件优化&amp;nbsp; 由于插件问题&amp;nbsp; 加载速度有提升" style="text;html=1;align=center;verticalAlign=middle;resizable=0;points=[];autosize=1;" vertex="1" parent="1">
                    <mxGeometry x="130" y="830" width="400" height="20" as="geometry"/>
                </mxCell>
                <mxCell id="146" value="数据质量控制管理分析(排行)" style="text;html=1;align=center;verticalAlign=middle;resizable=0;points=[];autosize=1;" vertex="1" parent="1">
                    <mxGeometry x="130" y="140" width="170" height="20" as="geometry"/>
                </mxCell>
                <mxCell id="149" style="edgeStyle=orthogonalEdgeStyle;rounded=0;orthogonalLoop=1;jettySize=auto;html=1;" edge="1" parent="1">
                    <mxGeometry relative="1" as="geometry">
                        <mxPoint x="130" y="100" as="targetPoint"/>
                        <mxPoint x="110" y="190" as="sourcePoint"/>
                        <Array as="points">
                            <mxPoint x="110" y="100"/>
                        </Array>
                    </mxGeometry>
                </mxCell>
                <mxCell id="150" value="新版规则管理系统页面及功能处理" style="text;html=1;align=center;verticalAlign=middle;resizable=0;points=[];autosize=1;" vertex="1" parent="1">
                    <mxGeometry x="130" y="90" width="200" height="20" as="geometry"/>
                </mxCell>
                <mxCell id="151" style="edgeStyle=orthogonalEdgeStyle;rounded=0;orthogonalLoop=1;jettySize=auto;html=1;" edge="1" parent="1">
                    <mxGeometry relative="1" as="geometry">
                        <mxPoint x="130" y="70" as="targetPoint"/>
                        <mxPoint x="110" y="190" as="sourcePoint"/>
                        <Array as="points">
                            <mxPoint x="110" y="70"/>
                            <mxPoint x="130" y="70"/>
                        </Array>
                    </mxGeometry>
                </mxCell>
                <mxCell id="152" value="全民健康信息平台单点登录菜单页UI风格修改" style="text;html=1;align=center;verticalAlign=middle;resizable=0;points=[];autosize=1;" vertex="1" parent="1">
                    <mxGeometry x="130" y="60" width="260" height="20" as="geometry"/>
                </mxCell>
            </root>
        </mxGraphModel>
    </diagram>
</mxfile>